<svg id="Layer_1" data-name="Layer 1" xmlns="http://www.w3.org/2000/svg" viewBox="0 0 862.65 163.06">
    <defs>
        <style>.cls-1{fill:#59d2fe;}.cls-2{fill:#4a8fe7;}</style>
    </defs>
    <path class="cls-1"
          d="M38,174.76a9.87,9.87,0,0,1-3.68-.69l-.16-.06-.16-.08a9.05,9.05,0,0,1-5.1-10.74l.06-.23.07-.22a10.4,10.4,0,0,1,.59-1.45c6.41-13.35,13.18-28.11,20.15-44h-.33a7.75,7.75,0,0,1-7.27-6.75l-.07-.42v-1.55l.17-.65a8.09,8.09,0,0,1,6.67-6.19l.46-.08h.29c.35,0,1.08-.12,2.18-.25l.14,0h.14c1.56-.12,3.13-.27,4.67-.46C65.27,81,71.23,66.41,74.53,57.54l.09-.21A8.94,8.94,0,0,1,83.1,51.5a10.46,10.46,0,0,1,1.24.08,8,8,0,0,1,2.15.41l.22.07.21.09A9.25,9.25,0,0,1,92.81,62l0,.4-.1.39a10.72,10.72,0,0,1-.58,1.74C87,77.19,82.64,88,79.05,96.71c3.15-.73,5.81-1.41,8-2,6.76-2,12.6-4,17.3-6a101.5,101.5,0,0,0,17.56-9.19c6.15-4.34,10.67-8.8,13.47-13.24a22.42,22.42,0,0,0,2.85-16.44,9.16,9.16,0,0,0-2.6-5.31l-.08-.09A16.73,16.73,0,0,0,129,40.54a39.4,39.4,0,0,0-11.42-1.6,55.9,55.9,0,0,0-8,.61A96.4,96.4,0,0,0,74,52.6a88.2,88.2,0,0,0-12.11,9,58.49,58.49,0,0,0-7.52,8.2,56.19,56.19,0,0,0-3.77,5.94l-.12.22-.09.13c0,.09-.18.36-.45,1l-.47,1.19-.32.48a8,8,0,0,1-6.72,3.71,8.9,8.9,0,0,1-3-.54L39,81.72l-.43-.25a7.81,7.81,0,0,1-3.46-9.76l.1-.3.14-.29c.11-.2.22-.42.35-.64s.17-.38.26-.58l.16-.3.26-.4.11-.43.39-.68a69.3,69.3,0,0,1,5.22-7.67A93.34,93.34,0,0,1,66.16,39.77,119.45,119.45,0,0,1,107.09,24a96,96,0,0,1,12.64-1.27c.94,0,1.93-.07,2.9-.07a50.87,50.87,0,0,1,10.9,1.09,32.8,32.8,0,0,1,14.72,7.08A26.74,26.74,0,0,1,157,46.49a55.23,55.23,0,0,1,.83,7.32v.25a54.51,54.51,0,0,1-.5,7.5l0,.22a43.22,43.22,0,0,1-5.33,14.43c-4.42,7.4-10.89,14-19.25,19.49a122.45,122.45,0,0,1-21.29,10.59,149.76,149.76,0,0,1-19.56,6.36c-6.61,1.55-12.32,2.64-17.06,3.26-1.41.21-2.76.4-4,.57C62.28,136,54.14,153.81,46.53,169.42l-.1.18A9.37,9.37,0,0,1,38,174.76Z"
          transform="translate(-23.08 -17.2)"/>
    <path class="cls-2"
          d="M122.63,28.2a44.83,44.83,0,0,1,9.7,1A27.16,27.16,0,0,1,144.63,35a21.25,21.25,0,0,1,6.9,12.45,49.4,49.4,0,0,1,.75,6.6,49.91,49.91,0,0,1-.45,6.75,37.53,37.53,0,0,1-4.65,12.6q-6,10.05-17.55,17.7a115.79,115.79,0,0,1-20.25,10,143.65,143.65,0,0,1-18.9,6.15q-9.6,2.25-16.5,3.15-3.9.6-7,.9Q53.58,142.41,41.58,167a3.86,3.86,0,0,1-3.6,2.25,4.4,4.4,0,0,1-1.65-.3,3.57,3.57,0,0,1-2.1-4.5,5.82,5.82,0,0,1,.3-.75Q45.78,140.31,58.08,112l-8.25-.15a2.24,2.24,0,0,1-2.25-2.1v-.45a2.6,2.6,0,0,1,2.25-2.1q.3,0,2.7-.3,4-.3,7.95-.9h.15q13.8-32.4,19.05-46.5A3.53,3.53,0,0,1,83.1,57a5.32,5.32,0,0,1,.78.06,2.83,2.83,0,0,1,.9.15,3.78,3.78,0,0,1,2.55,4.2,4.65,4.65,0,0,1-.3.9q-10.8,27-17.1,42a19,19,0,0,0,2.85-.6q10.05-2.1,15.75-3.75,10.5-3.15,17.85-6.15A107.13,107.13,0,0,0,125,84.06q10.2-7.2,15-14.85a28,28,0,0,0,3.6-20.4,14.53,14.53,0,0,0-4.2-8.25,22.31,22.31,0,0,0-8.7-5.25,44.41,44.41,0,0,0-13.12-1.87,60,60,0,0,0-8.78.67,101.22,101.22,0,0,0-37.65,13.8,94,94,0,0,0-12.9,9.6,63.33,63.33,0,0,0-8.25,9,60.49,60.49,0,0,0-4.2,6.6,14.29,14.29,0,0,0-.9,1.8l-.3.75a2.49,2.49,0,0,1-2.14,1.27,3.43,3.43,0,0,1-1.16-.22,2.35,2.35,0,0,1-1.05-3.15,7.34,7.34,0,0,1,.45-.75,1.15,1.15,0,0,1,.15-.45,5.17,5.17,0,0,0,.75-1.5,62.73,62.73,0,0,1,4.8-7A87.14,87.14,0,0,1,69,44.46a113.16,113.16,0,0,1,39-15,89.72,89.72,0,0,1,11.85-1.2c.94,0,1.86-.06,2.75-.06m0-11c-1,0-2.07,0-3.13.07a101.88,101.88,0,0,0-13.23,1.34h-.13A124.49,124.49,0,0,0,63.36,35l0,0,0,0A98.41,98.41,0,0,0,37.82,56.91l0,.06-.05.07a74.8,74.8,0,0,0-5.64,8.28l-.78,1.35-.09.35-.21.42c-.1.2-.19.39-.28.59s-.24.44-.34.65l-.29.58-.21.6a13.27,13.27,0,0,0,5.87,16.36l.87.51,1,.34a14.49,14.49,0,0,0,4.87.86,13.42,13.42,0,0,0,11.29-6.16l.64-1,.43-1.07L55,79.2l.15-.33,0,0,.24-.45a49.7,49.7,0,0,1,3.39-5.33,52.59,52.59,0,0,1,6.57-7.18c-3.12,7.8-7.26,17.8-12.4,29.92l-1.28.1-.28,0-.28,0-1.78.21h-.46l-.91.15a13.65,13.65,0,0,0-11.1,10.28l-.33,1.32v2.64l.13.83a13.33,13.33,0,0,0,5.63,9.1c-6.11,13.77-12,26.64-17.69,38.4a17.66,17.66,0,0,0-.87,2.14l-.14.45-.11.45a14.47,14.47,0,0,0,8.1,17l.31.15.32.13A15.35,15.35,0,0,0,38,180.26a14.92,14.92,0,0,0,13.31-8.06l.09-.18.09-.19c7.28-14.92,15-31.83,23.06-50.33.33,0,.67-.09,1-.15,4.92-.64,10.79-1.76,17.46-3.33l.08,0,.08,0a154.3,154.3,0,0,0,20.29-6.59,126.91,126.91,0,0,0,22.11-11l.08,0,.08-.06c9-6,16.09-13.13,20.92-21.23v0l0,0a48.38,48.38,0,0,0,6-16.26l0-.22,0-.22a60.45,60.45,0,0,0,.55-8.24v-.5a61.56,61.56,0,0,0-.91-8.06A32.08,32.08,0,0,0,152,26.81l0,0,0,0a38.1,38.1,0,0,0-17.17-8.31,55.8,55.8,0,0,0-12.07-1.22ZM110.44,45a48.33,48.33,0,0,1,7.12-.55,34.09,34.09,0,0,1,9.72,1.33,11.22,11.22,0,0,1,4.33,2.58l.09.08.09.09a3.62,3.62,0,0,1,1,2.21l0,.07v.08a17,17,0,0,1-2.17,12.57c-2.4,3.79-6.39,7.67-11.87,11.56a96.82,96.82,0,0,1-16.55,8.63c-3.84,1.57-8.49,3.21-13.85,4.88C91,82,93.92,74.7,97.16,66.62A16.31,16.31,0,0,0,98,64.09l.2-.78.08-.81a14.61,14.61,0,0,0-5.23-13A91.36,91.36,0,0,1,110.44,45Z"
          transform="translate(-23.08 -17.2)"/>
    <path class="cls-1"
          d="M810.89,146.16c-1.42,0-2.9-.08-4.4-.22a53.52,53.52,0,0,1-10.2-2l-.16-.05-.15,0a21.32,21.32,0,0,1-6.46-3.67l-.2-.18a16.53,16.53,0,0,1-4.35-6.81,85.56,85.56,0,0,1-8.72,4.52c-5,2.1-6,2.53-6.46,2.68-1.67.66-4,1.44-7.28,2.37l-.12,0c-1.66.44-5.13,1.16-10.6,2.19a24,24,0,0,1-4.47.47,13.19,13.19,0,0,1-4.4-.7l-.13-.05a12.86,12.86,0,0,1-7-6.67l-.11-.23-.08-.25a18.66,18.66,0,0,1-1.07-4.88,22.59,22.59,0,0,1,.75-7l0-.16.06-.17a76.85,76.85,0,0,1,3.55-8.91l.1-.19c1.49-2.89,2.63-5.18,3.41-6.81a26.74,26.74,0,0,0-2.95-.14c-1,0-2.22,0-3.51.11-6.15.41-7.92.46-8.72.46a43.16,43.16,0,0,1-5.54-.31,114.1,114.1,0,0,1-9.4,7.68l-.15.11-.08.08-10,7.22-5.62,4.07c-1.31,1.19-4,3.05-11.61,7.07l-.09.05c-2.25,1.13-4.53,2.21-6.79,3.24a60.1,60.1,0,0,1-24.49,5.65q-1.26,0-2.52-.06a19.14,19.14,0,0,1-15.24-8.75l-.11-.16a20.16,20.16,0,0,1-1.58-3.15l-.76.63a79.1,79.1,0,0,1-7.86,5.77l-.13.08a61.48,61.48,0,0,1-9.73,4.78l-.34.12-3.19.75-2.88.36-3.21.18-.33,0-2.44-.14h-.37l-.29-.05a19.64,19.64,0,0,1-7.87-2.73l-.18-.11-.16-.13a14.58,14.58,0,0,1-5.39-7.67c-2.07,1.25-4,2.33-5.89,3.23-9.56,4.58-18.9,6.89-27.8,6.89l-1.71,0a49,49,0,0,1-8.86-.84,44.45,44.45,0,0,1-9.3-2.47l-.13-.06a18.19,18.19,0,0,1-5.79-4.13,17,17,0,0,1-3.36-5.33,82.92,82.92,0,0,1-8.37,4.52l-1.42.66H516l-1.28.62-.2.1c-2.09.94-3.7,1.61-4.91,2.06a43.64,43.64,0,0,1-8.46,2.52,32.64,32.64,0,0,1-6.24.64,24.08,24.08,0,0,1-4-.31l-.23-.05a26.93,26.93,0,0,1-10.16-4.2l-.15-.11-.15-.12a21.63,21.63,0,0,1-6.61-9.24l-.07-.18-.05-.18c-.09-.32-.18-.63-.26-.93-2.18,1.72-4.34,3.4-6.46,5a85.74,85.74,0,0,1-9.1,6.07,58.08,58.08,0,0,1-7.76,3.94,28.77,28.77,0,0,1-10.66,2.35h-.91a13.76,13.76,0,0,1-11-6.58l-.07-.12-.08-.13a18.88,18.88,0,0,1-1.43-3.2c-1.21.66-2.47,1.31-3.77,2l-.54.27-.39.1c-.08,0-.23.11-.45.24l-.28.15-.28.13a34,34,0,0,1-3.81,1.43l-.74.21h-.13l-1.32.48-.19.06-.51.13-.51.25-2,.45a35.25,35.25,0,0,1-7.64.73,13.91,13.91,0,0,1-7.13-1.8l-.32-.19-.29-.23a13.52,13.52,0,0,1-4.74-7l-.06-.2,0-.21a29.9,29.9,0,0,1-.24-9l0-.2,0-.2c.32-1.79.84-4.34,1.55-7.57l.05-.23a28.32,28.32,0,0,0,.76-3.33l0-.33.15-.58c-.49.16-1,.34-1.53.55a74.55,74.55,0,0,0-15.7,9.34,87.2,87.2,0,0,0-7.31,6,21.83,21.83,0,0,1-1.42,2.9,23.15,23.15,0,0,1-1.62,2.65l-.38.76-.26.36a9.21,9.21,0,0,1-7.53,4.08,10.06,10.06,0,0,1-4.14-.93l-.15-.07-1.13-.57-.4-.3a9.3,9.3,0,0,1-3.11-11.37l.08-.21.65-1.31.08-.08c.14-.29.37-.75.71-1.47a33.67,33.67,0,0,0,1.73-5.82,6.26,6.26,0,0,0,0-1.61l-.06-.08-.55.11a25.06,25.06,0,0,0-4.95,2c-.77.45-2.29,1.43-5.3,3.54-2.13,1.58-3.86,2.93-5.14,4-2.85,2.56-5.74,5.36-8.61,8.32-.71.79-1.45,1.65-2.21,2.54q-1.64,3.41-2.89,5.91l-.13.27-.16.25a9.57,9.57,0,0,1-8.23,4.62,9.38,9.38,0,0,1-4.26-1l-.1-.05a9,9,0,0,1-5-7.06c-1,.48-1.89.92-2.8,1.32-4.95,2.08-6,2.52-6.45,2.67-1.67.66-4.06,1.44-7.29,2.38l-.12,0c-1.66.44-5.13,1.16-10.6,2.19a23.22,23.22,0,0,1-4.47.47,12.94,12.94,0,0,1-4.4-.7l-.13-.05a12.86,12.86,0,0,1-7-6.67l-.11-.23-.08-.24a18.75,18.75,0,0,1-1.07-4.88,22.56,22.56,0,0,1,.75-7l0-.17.06-.17a75.36,75.36,0,0,1,3.55-8.9l.1-.19c1.5-2.91,2.64-5.21,3.41-6.82a27.38,27.38,0,0,0-2.95-.13c-1,0-2.22,0-3.51.11-6.15.41-7.92.46-8.71.46a43.06,43.06,0,0,1-5.55-.32,114.1,114.1,0,0,1-9.4,7.68l-.15.11-.09.09L225,126l-2.87,2.08c-13.05,9.13-30.31,15-51.39,17.65a38.84,38.84,0,0,1-5.57.4c-1.43,0-2.9-.08-4.4-.22a53.37,53.37,0,0,1-10.2-2l-.16-.05-.15,0a21.5,21.5,0,0,1-6.47-3.67l-.09-.09-.1-.09a16.7,16.7,0,0,1-4.7-8l0-.19a26.43,26.43,0,0,1,.86-14.17,55.81,55.81,0,0,1,4.68-10.08l.11-.2,1.4-2,1.27-2.07.17-.23q1.56-2,3.14-3.92a43.35,43.35,0,0,1,11-9.59l.15-.09a24,24,0,0,1,11.74-3.28,21.48,21.48,0,0,1,11.17,3.22c7.28,4.26,8.82,10.3,8.82,14.61v.37a18.71,18.71,0,0,1-1.48,6.15l-.09.19-.09.19a23.76,23.76,0,0,1-6.61,7.8l-.18.14a40.75,40.75,0,0,1-13.35,5.93l-.17,0a82.63,82.63,0,0,1-9.78,1.59,45.07,45.07,0,0,1-4.79.42,4.48,4.48,0,0,0,0,.64,3.47,3.47,0,0,0,.27.55,11.61,11.61,0,0,0,1,1.3,11.56,11.56,0,0,0,4.32,1.17,37.83,37.83,0,0,0,4.13.23c.91,0,1.83,0,2.72-.1,16.66-1.5,30.84-6.06,42.09-13.56l1.19-.89,8-5.69,7.23-5.28c1.9-1.38,3.7-2.76,5.38-4.12a13.71,13.71,0,0,1-1.9-5.24l-.05-.44,0-.44a24.41,24.41,0,0,1,.7-5.13,7.78,7.78,0,0,1,.93-2.14,9.24,9.24,0,0,1,.89-1.17l.15-.17.16-.17a8,8,0,0,1,.67-.61,13.21,13.21,0,0,1,4.76-3l.1,0a14.61,14.61,0,0,1,4.44-.67,17.7,17.7,0,0,1,3.57.38l.2,0,.19.06a18,18,0,0,1,3.48,1.25A10.13,10.13,0,0,1,254,85.19a11,11,0,0,1,2.15,2.59l.17.28.14.31a11.6,11.6,0,0,1,1,5.71q1.35,0,3,0h9a40.85,40.85,0,0,1,5.55.69,15.7,15.7,0,0,1,8.3,4.44,12.55,12.55,0,0,1,1.75,2.4l.39.58.48,1,.15.45.15.29.56,1.67v.56a9.32,9.32,0,0,1,.15,1.69V110l-.05.37a27.8,27.8,0,0,1-1.63,6.1c-.3.85-1,2.63-3.62,8.34l-.09.2c-.17.32-.37.78-.61,1.35l-.07.15-.07.14c-.47.94-.72,1.52-.85,1.85,1.36-.21,2.59-.43,3.67-.67,3.76-.94,5.4-1.42,6.12-1.66a35.64,35.64,0,0,0,5.14-2.1l.23-.12A78.94,78.94,0,0,0,308,116.54l5.72-4.07c1.29-2.92,2.66-6.08,4.08-9.41,1.83-4.28,3-6.91,3.67-8.27a8.84,8.84,0,0,1,8.2-5.53,10.44,10.44,0,0,1,2.06.21l.14,0,.14,0a10.29,10.29,0,0,1,1.81.62,9,9,0,0,1,5.47,9.94,8.32,8.32,0,0,1-.22,1.4,32.49,32.49,0,0,1,8.2-3.55,44.65,44.65,0,0,1,4.71-.88l.23,0c2.43-.22,4.07-.33,5.15-.33h.48l.48.09a15.1,15.1,0,0,1,7.27,3.48l.25.22.23.25a21.4,21.4,0,0,1,3.54,5.26c1.73-1.21,3.52-2.45,5.36-3.7l.19-.12a86.51,86.51,0,0,1,10.27-5.6c5.7-2.59,10-3.8,13.48-3.8a11.82,11.82,0,0,1,3.85.61,13.84,13.84,0,0,1,6.85,5.06l.09.13.09.12a16.86,16.86,0,0,1,2.48,6.24l0,.18a30.63,30.63,0,0,1,.36,4.58V110l0,.31c-.07.58-.11,1-.12,1.24a17,17,0,0,1-.2,2.36l0,.14c-.33,2-.91,4.5-1.76,7.71-.32,1.24-.57,2.28-.76,3.09.24-.08.49-.15.76-.22l1.44-.4a69.71,69.71,0,0,0,14.84-7.94l1.69-1.21a45.16,45.16,0,0,1,4-5.48l.11-.12a44.45,44.45,0,0,1,14-10.45A37.8,37.8,0,0,1,462.93,95c.8,0,1.6,0,2.39.09l.24,0A48.09,48.09,0,0,1,474.05,97a10.57,10.57,0,0,1,1.56.52l1.72.71,1.33.53a9.69,9.69,0,0,1,3.9-.81,10.93,10.93,0,0,1,1.87.17l.23,0,.22.06a9,9,0,0,1,6.95,9.06v.45c0,.36,0,.68-.31,3.78a16.24,16.24,0,0,1-.18,1.86c-.1.91-.11,1.31-.11,1.41v4.36a17,17,0,0,0,.54,3.73,30.46,30.46,0,0,0,1.1,3.46,1.72,1.72,0,0,0,1,.62,9.63,9.63,0,0,0,1.94.18,16.36,16.36,0,0,0,2.59-.22,48.42,48.42,0,0,0,11.81-4c3-1.6,7-4,12-7.28l4.78-3.39c1-3.12,2.35-6.75,4-10.83l0-.1c1.81-4.12,3.95-8.85,6.34-14q2.21-4.61,4.76-9.78a67.26,67.26,0,0,0-8.07-1.18c-.39,0-.83,0-1.26,0s-.74,0-1,0a7.84,7.84,0,0,1-6.47,5.21l-.38,0h-.39a7.88,7.88,0,0,1-7.93-6.45l-.12-.56V72.47a11.63,11.63,0,0,1,3.39-7.59l.18-.17a15.27,15.27,0,0,1,7.64-3.6,51.85,51.85,0,0,1,6.63-.69h.38a114.35,114.35,0,0,1,14.52,1.42l1,.16c2.13-4,3.81-7,5-9,1.86-3,3.46-5.47,4.79-7.41a47.41,47.41,0,0,1,4-5.36l1.35-1.51a9.12,9.12,0,0,1,6.77-3.11,9.73,9.73,0,0,1,5.07,1.5,6.78,6.78,0,0,1,1.51,1.09,9.26,9.26,0,0,1,1.72,11.84l-.13.21-.14.21c-.63.92-5.87,8.88-10,15.78l1.92.42a47.6,47.6,0,0,0,6.37,1.08h.12c1.36.12,2.72.18,4,.18.61,0,1.22,0,1.82,0a21.71,21.71,0,0,0,4.37-.93,15.13,15.13,0,0,0,3.25-1.35l2.5-1.76L596.65,62l.1-.09a7.69,7.69,0,0,1,5.54-2.4,8.25,8.25,0,0,1,4.94,1.74l.53.41.43.51a7.86,7.86,0,0,1,0,10.27l-.25.3-.29.27c-1.63,1.49-3.57,3.28-3.88,3.59l-.29.29-.36.26a25.12,25.12,0,0,1-3.18,2,42.73,42.73,0,0,1-5.9,2.69l-.25.1-.26.07a56.59,56.59,0,0,1-7.48,1.5h-.11a56.79,56.79,0,0,1-6.34.37c-.64,0-1.27,0-1.88,0a64.16,64.16,0,0,1-8.34-.64A65.43,65.43,0,0,1,561.71,82c-1.73,3.39-4,8-6.85,13.7-2.55,5.2-4.7,9.7-6.39,13.36a94.83,94.83,0,0,0-4.92,13.17,23.46,23.46,0,0,0-.72,3.77,2,2,0,0,0,.25.24,25.83,25.83,0,0,0,5,1.74,31.81,31.81,0,0,0,5.81.89l1.59,0A47.75,47.75,0,0,0,576.28,124a104.45,104.45,0,0,0,12-7.47l1.88-1.41,2.08-1.46c.34-.72.68-1.4,1-2.06a99.3,99.3,0,0,1,6.7-10.53l1.49-1.92v-.25l1.25-1.52a9.09,9.09,0,0,1,7.19-3.61,9.8,9.8,0,0,1,4.56,1.18,7.81,7.81,0,0,1,1.86,1.36,9.33,9.33,0,0,1,2,11.57c-.15.3-.36.68-2.47,4-3.72,6.16-5,8.3-5.36,9-1.6,3.19-2.28,4.77-2.58,5.55a12.47,12.47,0,0,0-.86,2.88l.17,0,.71.1h.21l1.58-.1,1.08-.27a40.7,40.7,0,0,0,6.55-3,78,78,0,0,0,6.42-4.52A90.1,90.1,0,0,0,634,111.56c.08-.12.18-.24.28-.37.39-1.37.75-2.53,1.08-3.52l.05-.15.06-.15c.64-1.6,1.34-3.21,2.07-4.79l.09-.19,2.06-3.63a8.9,8.9,0,0,1,7.88-4.82,10.26,10.26,0,0,1,3,.46l1.64.54.55.33A9.14,9.14,0,0,1,657,105.91v.31l-.23.45-.26.85-.27.27-1.15,2.81c-.66,1.68-1.15,3-1.44,3.74a25.19,25.19,0,0,0-1.23,4.07l-.14.83-.12.26c-.06.25-.15.7-.29,1.47a12.18,12.18,0,0,1-.19,1.44,9.54,9.54,0,0,0-.08,1,4.79,4.79,0,0,0,.38,2.35l.07.13a8,8,0,0,0,2.29,1.9,6.71,6.71,0,0,0,1.66.78,7.62,7.62,0,0,0,1.57.17l.55,0a48.28,48.28,0,0,0,13.95-3.36c1.92-.83,4-1.85,6.2-3,1.79-1,4.85-3,9.06-5.82l5.81-4.2,9.7-7.13q2.86-2.09,5.39-4.13a13.71,13.71,0,0,1-1.9-5.24l0-.44,0-.44a24,24,0,0,1,.66-5.13l0-.15,0-.14a10.12,10.12,0,0,1,1.27-2.37l.28-.41,1.11-1.11a12.45,12.45,0,0,1,4.85-3.12l.1,0a14.91,14.91,0,0,1,4.44-.66,17.7,17.7,0,0,1,3.57.38l.2,0,.19.06a18,18,0,0,1,3.48,1.25A10,10,0,0,1,729,85.1a10.9,10.9,0,0,1,2.15,2.58l.17.29.14.31a11.56,11.56,0,0,1,1,5.7c.9,0,1.89,0,3,0h9a40.81,40.81,0,0,1,5.55.7,15.64,15.64,0,0,1,8.3,4.44,12.55,12.55,0,0,1,1.75,2.4l.39.59.48.95.15.45.15.3.56,1.67v.56a9.22,9.22,0,0,1,.14,1.68v2.17l0,.36a28.22,28.22,0,0,1-1.63,6.1c-.3.85-1,2.62-3.62,8.35l-.09.19c-.16.33-.37.78-.61,1.35l-.06.15-.08.14c-.47,1-.72,1.53-.85,1.85,1.36-.2,2.59-.42,3.67-.66,3.76-.94,5.4-1.42,6.12-1.66a34.61,34.61,0,0,0,5.14-2.11l.23-.11A79.06,79.06,0,0,0,783,116.44l4-2.81a63.75,63.75,0,0,1,3.11-6.06l.11-.2,1.4-2,1.27-2.06.17-.23c1-1.35,2.09-2.67,3.14-3.92a43.22,43.22,0,0,1,11-9.59l.15-.09a24,24,0,0,1,11.73-3.28,21.48,21.48,0,0,1,11.17,3.22c7.28,4.26,8.82,10.3,8.82,14.61v.37a18.71,18.71,0,0,1-1.48,6.15l-.08.19-.1.19a23.64,23.64,0,0,1-6.61,7.8l-.18.14a41,41,0,0,1-13.35,5.94l-.17,0a82.63,82.63,0,0,1-9.78,1.59,44.82,44.82,0,0,1-4.79.42c0,.27,0,.48,0,.64a3.58,3.58,0,0,0,.28.55,9.71,9.71,0,0,0,1,1.3,11.42,11.42,0,0,0,4.31,1.17,37.87,37.87,0,0,0,4.14.23c.9,0,1.82,0,2.71-.1,16.72-1.5,30.94-6.09,42.21-13.64l.12-.07.11-.07a1.74,1.74,0,0,0,.2-.13l.27-.27L868.39,109l.21-.13a8.23,8.23,0,0,1,4.15-1.18,7.52,7.52,0,0,1,5.91,2.94l.31.38.23.43a7.6,7.6,0,0,1-1.62,9.59l-.2.18-9.53,6.91c-13.05,9.13-30.31,15-51.39,17.65A38.74,38.74,0,0,1,810.89,146.16ZM449.93,120a25.69,25.69,0,0,0-5,5.73,9.23,9.23,0,0,0-1,2.4,22.13,22.13,0,0,0,5-2.17,14.4,14.4,0,0,1,1.6-.82,80.83,80.83,0,0,0,14-10.08l.11-.09q2.1-1.77,4-3.54a15.53,15.53,0,0,0-1.56-.1C462.31,111.5,456.54,114.42,449.93,120ZM177.06,102.42c-.36,0-2.39.18-6.74,3.75a41,41,0,0,0-4.66,4.51c.79-.14,1.55-.3,2.27-.46a25.65,25.65,0,0,0,8.13-3.36,7.37,7.37,0,0,0,2.08-2.5c.16-.38.12-.46,0-.63C177.84,103.09,177.42,102.42,177.06,102.42Zm645.74,0c-.36,0-2.39.18-6.74,3.75a40.06,40.06,0,0,0-4.65,4.51c.78-.14,1.54-.3,2.26-.46a25.82,25.82,0,0,0,8.14-3.36,7.64,7.64,0,0,0,2.08-2.5c.15-.38.11-.46,0-.62C823.58,103.09,823.17,102.42,822.8,102.42Z"
          transform="translate(-23.08 -17.2)"/>
    <path class="cls-2"
          d="M572.19,41.14a4.44,4.44,0,0,1,2.34.77,1.74,1.74,0,0,1,.45.3,3.76,3.76,0,0,1,.75,5.1c-.21.3-9.45,14.25-13.65,22l-.3.6a4.65,4.65,0,0,0,.9.3,4.1,4.1,0,0,0,.9.15l7.35,1.65a57.85,57.85,0,0,0,7.2,1.2c1.53.14,3,.2,4.52.2.75,0,1.49,0,2.23,0a26.22,26.22,0,0,0,5.7-1.2,19.81,19.81,0,0,0,4.5-1.95l3-2.1,2.4-2.25.15-.15a2.36,2.36,0,0,1,1.66-.79,2.82,2.82,0,0,1,1.64.64,2.35,2.35,0,0,1,0,3.3s-3.55,3.25-4,3.75a20.18,20.18,0,0,1-2.55,1.65,38,38,0,0,1-5.25,2.4,50.39,50.39,0,0,1-6.75,1.35,51,51,0,0,1-5.74.34c-.6,0-1.19,0-1.76,0a60.13,60.13,0,0,1-7.8-.6,57.42,57.42,0,0,1-7.8-1.35,28,28,0,0,1-3.45-.75q-2.7,5.1-8.85,17.55-3.9,8-6.45,13.5a98,98,0,0,0-5.25,14.1,20.85,20.85,0,0,0-.9,6.15,6.45,6.45,0,0,0,2.85,3.9,29.4,29.4,0,0,0,6.6,2.4,37.39,37.39,0,0,0,6.9,1.05c.61,0,1.23,0,1.84,0a53,53,0,0,0,23.21-5.43,108.26,108.26,0,0,0,12.75-8l1.8-1.35,3.3-2.31c.46-1,.95-2.08,1.5-3.09a92,92,0,0,1,6.3-9.9l2.55-3.3v-.15a3.78,3.78,0,0,1,2.94-1.6,4.36,4.36,0,0,1,2,.55,2.75,2.75,0,0,1,.6.45,3.91,3.91,0,0,1,.9,5.1q-.17.3-2.25,3.6-4.82,8-5.55,9.3-2.12,4.2-2.85,6.15a12.39,12.39,0,0,0-1.2,6,3.65,3.65,0,0,0,2.85,3.75,9,9,0,0,0,2,.6,6.61,6.61,0,0,1,1,.15h.9l2.25-.15,1.8-.45a45.58,45.58,0,0,0,7.8-3.6,83.26,83.26,0,0,0,7-5,95.59,95.59,0,0,0,11.1-10.8,6.18,6.18,0,0,1,.9-1c.5-1.8.94-3.3,1.35-4.5.6-1.5,1.24-3,2-4.5l1.95-3.45a3.41,3.41,0,0,1,3.09-2,5,5,0,0,1,1.41.22l.9.3a3.71,3.71,0,0,1,1.8,4.65.4.4,0,0,0-.15.3c-.11.2-.6,1.4-1.5,3.6-.71,1.8-1.2,3.1-1.5,3.9a30.35,30.35,0,0,0-1.5,5.1,19.54,19.54,0,0,0-.6,2.85,7.44,7.44,0,0,1-.15,1.2,13.84,13.84,0,0,0-.15,1.8,9.86,9.86,0,0,0,1.2,5.25,12.25,12.25,0,0,0,4.05,3.75,12,12,0,0,0,3.3,1.5,12.59,12.59,0,0,0,2.92.34c.32,0,.65,0,1,0a53.32,53.32,0,0,0,15.6-3.75q3.15-1.35,6.75-3.3,3-1.65,9.6-6.15l5.87-4.25,9.73-7.15q5.53-4.05,9.89-8a10.39,10.39,0,0,1-2.7-2.85,10,10,0,0,1-1.5-3.6,20.63,20.63,0,0,1,.45-3.9,6.81,6.81,0,0,1,.61-1.05c.3-.3.54-.55.75-.75a7.06,7.06,0,0,1,2.69-1.8,9.65,9.65,0,0,1,2.81-.41,12.36,12.36,0,0,1,2.44.26,12.94,12.94,0,0,1,2.56.9,5,5,0,0,1,1.35.83,5.24,5.24,0,0,1,1,1.27,6.07,6.07,0,0,1-.14,5.4,9.7,9.7,0,0,1-1.06,1.8l-.59.75v.15c1.2.3,2.14.5,2.84.6a78.08,78.08,0,0,0,8,.3h8.71a35,35,0,0,1,4.79.6,10.12,10.12,0,0,1,5.41,2.85,7.85,7.85,0,0,1,1,1.5l.29.45.16.3.14.45.16.3.15.45v.3a3.66,3.66,0,0,1,.14,1.05v1.8a22.21,22.21,0,0,1-1.34,5c-.3.9-1.46,3.55-3.45,7.95q-.31.6-.75,1.65a18.73,18.73,0,0,0-1.35,3.15,14.94,14.94,0,0,0-1.36,4.65,2.33,2.33,0,0,0,1,1.65,7.77,7.77,0,0,0,3.44.63l.92,0c2.39-.3,4.5-.65,6.3-1,3.19-.8,5.4-1.4,6.59-1.8a40.72,40.72,0,0,0,5.86-2.4,85.25,85.25,0,0,0,13.8-8l5.27-3.74a55.65,55.65,0,0,1,3.42-6.91l1.35-2,1.2-2q1.5-1.95,3-3.75a37.68,37.68,0,0,1,9.6-8.4,18.63,18.63,0,0,1,9.06-2.58,16,16,0,0,1,8.34,2.43q6.15,3.6,6.15,9.9a13.2,13.2,0,0,1-1.05,4.35,18.18,18.18,0,0,1-5.1,6,35.11,35.11,0,0,1-11.55,5.1,75,75,0,0,1-9.3,1.5,49,49,0,0,1-6,.45l-2.1.15h-.15l-.3.45a13.73,13.73,0,0,0-.9,6.6,8.36,8.36,0,0,0,1,2.4,16.73,16.73,0,0,0,2.1,2.55,15.19,15.19,0,0,0,7.2,2.4,43.8,43.8,0,0,0,4.82.27c1.05,0,2.1,0,3.13-.12q26.7-2.4,44.85-14.55a6.23,6.23,0,0,0,1.2-.9l9.9-7a2.89,2.89,0,0,1,1.38-.43,2.07,2.07,0,0,1,1.62.88,2.1,2.1,0,0,1-.45,2.85l-9.3,6.75q-18.45,12.9-48.9,16.65a32.67,32.67,0,0,1-4.83.35c-1.25,0-2.54-.07-3.87-.2a47.79,47.79,0,0,1-9.15-1.8,15.82,15.82,0,0,1-4.8-2.7,11.25,11.25,0,0,1-3.15-5.4,18.69,18.69,0,0,1-.24-7l-1.1.8A99.18,99.18,0,0,1,774,132.66c-3.8,1.6-5.84,2.45-6.14,2.55-1.5.6-3.81,1.35-6.91,2.25q-2.25.6-10.2,2.1a18.57,18.57,0,0,1-3.45.38,7.61,7.61,0,0,1-2.55-.38,7.39,7.39,0,0,1-4-3.9,13.27,13.27,0,0,1-.75-3.45,17,17,0,0,1,.61-5.25,67.33,67.33,0,0,1,3.3-8.25q2.39-4.65,3.59-7.2,2.85-6.45-3.75-7.5a28,28,0,0,0-4.27-.27c-1.15,0-2.42,0-3.82.12-4.5.3-7.31.45-8.41.45a26.79,26.79,0,0,1-7.2-.75,118.82,118.82,0,0,1-10.94,9.15,4.12,4.12,0,0,0-.61.45l-9.67,7-5.92,4.29c-1.2,1.2-4.76,3.35-10.65,6.45q-3.32,1.65-6.6,3.15a54.37,54.37,0,0,1-22.22,5.16c-.75,0-1.49,0-2.23-.06a13.52,13.52,0,0,1-10.95-6.3,18.49,18.49,0,0,1-2.55-9.45v-1.8a91.29,91.29,0,0,1-7.95,7.35,73.87,73.87,0,0,1-7.35,5.4,55.55,55.55,0,0,1-8.85,4.35l-2.55.6-2.4.3-2.7.15q-2.42-.15-2.7-.15a14.15,14.15,0,0,1-5.7-1.95,9.06,9.06,0,0,1-3.6-5.7,19.75,19.75,0,0,1,.41-7.8,95.88,95.88,0,0,1-13.76,8.55Q567.3,139,555.14,139c-.54,0-1.08,0-1.61,0a43.6,43.6,0,0,1-7.95-.75,40.84,40.84,0,0,1-8.1-2.1,12.69,12.69,0,0,1-4.05-2.85,11.48,11.48,0,0,1-2.7-4.8,20.79,20.79,0,0,1-.27-6.68l-3.63,2.63a67.45,67.45,0,0,1-11.85,6.9.61.61,0,0,0-.45.15q-.75.3-2.25,1-3,1.35-4.65,2a38.2,38.2,0,0,1-7.5,2.25,27.52,27.52,0,0,1-5.2.54,18.49,18.49,0,0,1-3.05-.24,21.49,21.49,0,0,1-8.1-3.3,16.07,16.07,0,0,1-4.95-6.9,36.48,36.48,0,0,1-1.35-6.9q-.15-1.65-.15-3.45-3,2.7-6.45,5.85-3.75,3-7.35,5.7a78.85,78.85,0,0,1-8.55,5.7,52.61,52.61,0,0,1-7.05,3.6,23.65,23.65,0,0,1-8.62,2h-.53a8.32,8.32,0,0,1-6.75-4,16.83,16.83,0,0,1-1.95-8.4,10.64,10.64,0,0,1,.1-1.11,95.53,95.53,0,0,1-10.6,6.06,7.18,7.18,0,0,0-1.65.75,29.47,29.47,0,0,1-3.15,1.2,2.47,2.47,0,0,0-.75.15l-1.65.6-.6.15-.45.15-.3.15-1.35.3a30.11,30.11,0,0,1-6.45.6,8.49,8.49,0,0,1-4.35-1.05,8.14,8.14,0,0,1-2.85-4.2,24.77,24.77,0,0,1-.15-7.35q.45-2.55,1.5-7.35a36.15,36.15,0,0,0,.9-4l.3-1.2a9.2,9.2,0,0,1,.15-1.2c0-.9,0-1.6-.07-2.1a6.4,6.4,0,0,0-.23-1.2l-.3-.6a3.5,3.5,0,0,0-3.15-1.35h-.6a30.1,30.1,0,0,0-4.95,1.5,79.77,79.77,0,0,0-16.95,10,87.7,87.7,0,0,0-8.7,7.2,17.46,17.46,0,0,1-1.5,3.3,12.93,12.93,0,0,1-1.5,2.4l-.45.9a3.75,3.75,0,0,1-3.07,1.8,4.6,4.6,0,0,1-1.88-.45l-.6-.3a3.87,3.87,0,0,1-1.35-5l.15-.3a27.61,27.61,0,0,0,1.35-2.7,39.55,39.55,0,0,0,2.1-7.2,11,11,0,0,0-.15-4,10.8,10.8,0,0,0-1.8-2.85,7.1,7.1,0,0,0-2.25-1.2,14.72,14.72,0,0,0-3.15.45,30.81,30.81,0,0,0-6.3,2.55q-1.8,1.05-5.85,3.9-3.45,2.55-5.55,4.35-4.5,4.05-9,8.7-1.35,1.5-2.85,3.3-1.8,3.75-3.15,6.45a4.11,4.11,0,0,1-3.6,2.1,4,4,0,0,1-1.8-.45,3.62,3.62,0,0,1-1.95-4.65l.3-.6q2.13-4.14,4.74-9.75l-1.16.85A99.7,99.7,0,0,1,299,132.76q-5.7,2.4-6.14,2.55c-1.5.6-3.81,1.35-6.9,2.25q-2.25.6-10.21,2.1a18.48,18.48,0,0,1-3.45.37,7.53,7.53,0,0,1-2.54-.37,7.35,7.35,0,0,1-4-3.9,12.5,12.5,0,0,1-.75-3.45,16.64,16.64,0,0,1,.6-5.25,67.33,67.33,0,0,1,3.3-8.25q2.38-4.65,3.6-7.2,2.83-6.45-3.75-7.5a28.21,28.21,0,0,0-4.28-.27c-1.15,0-2.42,0-3.82.12-4.5.3-7.31.45-8.4.45a26.69,26.69,0,0,1-7.2-.75,120.14,120.14,0,0,1-11,9.15,3.87,3.87,0,0,0-.6.45L224,120l0,0-5.06,3.67q-18.45,12.9-48.9,16.65a32.67,32.67,0,0,1-4.83.35c-1.25,0-2.54-.07-3.87-.2a47.79,47.79,0,0,1-9.15-1.8,15.82,15.82,0,0,1-4.8-2.7,11.25,11.25,0,0,1-3.15-5.4,21,21,0,0,1,.75-11.25,50.25,50.25,0,0,1,4.2-9l1.35-2,1.2-2q1.5-1.95,3-3.75a37.68,37.68,0,0,1,9.6-8.4,18.63,18.63,0,0,1,9.06-2.58,16.06,16.06,0,0,1,8.34,2.43q6.15,3.6,6.15,9.9a13.2,13.2,0,0,1-1.05,4.35,18.18,18.18,0,0,1-5.1,6,35.11,35.11,0,0,1-11.55,5.1,75,75,0,0,1-9.3,1.5,49,49,0,0,1-6,.45l-2.1.15h-.15l-.3.45a13.73,13.73,0,0,0-.9,6.6,8.36,8.36,0,0,0,1.05,2.4,16.73,16.73,0,0,0,2.1,2.55,15.19,15.19,0,0,0,7.2,2.4,43.62,43.62,0,0,0,4.81.27c1.06,0,2.1,0,3.14-.12q26.7-2.4,44.85-14.55l1.2-.9,8-5.69,7.29-5.31q5.53-4.05,9.9-8a10.24,10.24,0,0,1-2.7-2.85,9.64,9.64,0,0,1-1.5-3.6,19.08,19.08,0,0,1,.49-3.91,2.49,2.49,0,0,1,.32-.76c0-.08.41-.51.41-.51a7.43,7.43,0,0,1,.58-.52,7.71,7.71,0,0,1,2.7-1.8,9.21,9.21,0,0,1,2.8-.42,11.78,11.78,0,0,1,2.45.27,12.74,12.74,0,0,1,2.55.9,4.93,4.93,0,0,1,1.35.82,5.57,5.57,0,0,1,1,1.28,6.07,6.07,0,0,1-.15,5.4,10.16,10.16,0,0,1-1,1.8l-.6.75v.15c1.2.3,2.14.5,2.85.6a77.81,77.81,0,0,0,8,.3h8.7a35.15,35.15,0,0,1,4.8.6,10.08,10.08,0,0,1,5.4,2.85,7.89,7.89,0,0,1,1,1.5l.31.45.15.3.14.45.15.3.16.45v.3a3.64,3.64,0,0,1,.15,1v1.8a22.83,22.83,0,0,1-1.35,5c-.3.9-1.46,3.55-3.46,8-.2.4-.44,1-.75,1.65a19.36,19.36,0,0,0-1.34,3.15,14.84,14.84,0,0,0-1.35,4.65,2.27,2.27,0,0,0,1,1.65,7.85,7.85,0,0,0,3.43.62l.92,0c2.39-.3,4.5-.65,6.29-1,3.2-.8,5.41-1.4,6.6-1.8a40.72,40.72,0,0,0,5.86-2.4,84.77,84.77,0,0,0,13.79-7.95l7-5q2.22-5,4.72-10.87,2.7-6.3,3.6-8.1a3.33,3.33,0,0,1,3.21-2.35,5,5,0,0,1,1,.1,4.65,4.65,0,0,1,.9.3,3.52,3.52,0,0,1,2.25,4.35,2.83,2.83,0,0,1-.15.9q-1.5,3.15-3.45,8-2.7,6.3-4.8,11,2.4-2.25,4.05-3.75,1.05-.9,5.55-4.65,4.5-3.3,6.3-4.35a27.45,27.45,0,0,1,7.35-3.3,36.91,36.91,0,0,1,4.05-.75q3.3-.3,4.65-.3a9.63,9.63,0,0,1,4.65,2.25,15.91,15.91,0,0,1,2.7,4.05,18.46,18.46,0,0,1,.9,7.5q2.25-2,4.5-3.6,3.75-2.7,7.95-5.55a81.56,81.56,0,0,1,9.6-5.25q7.32-3.31,11.25-3.32a6.27,6.27,0,0,1,2.1.32,8.39,8.39,0,0,1,4.2,3.15,11.2,11.2,0,0,1,1.65,4.2,24.67,24.67,0,0,1,.3,3.75q-.15,1.35-.15,1.8a12.4,12.4,0,0,1-.15,1.65q-.45,2.7-1.65,7.2-.75,3-1.05,4.35-.75,4.2.15,6a4.45,4.45,0,0,0,1.65.23,23,23,0,0,0,2.85-.23l1.2-.3h.45l.6-.15a4.65,4.65,0,0,1,.9-.3l1.65-.45a74.75,74.75,0,0,0,16.35-8.7l2.68-1.91A35.78,35.78,0,0,1,449,104a32.17,32.17,0,0,1,13.95-3.52c.66,0,1.31,0,1.95.07a43.17,43.17,0,0,1,7.8,1.8,4.18,4.18,0,0,1,.9.3l1.65.68c.6.25,1.22.5,1.87.75s1.38.57,2.18,1a4.14,4.14,0,0,1,3.28-1.58,6,6,0,0,1,.92.08,3.51,3.51,0,0,1,2.85,3.75v.45q0,.3-.3,3.45a12.18,12.18,0,0,1-.15,1.5,20.32,20.32,0,0,0-.15,2.1v4.5a23,23,0,0,0,.75,5.1,28.25,28.25,0,0,0,1.65,4.8,7.43,7.43,0,0,0,4.65,3.15,14.87,14.87,0,0,0,3.07.3,22.43,22.43,0,0,0,3.53-.3,53.9,53.9,0,0,0,13.35-4.5q4.8-2.55,12.6-7.65l6.4-4.54a116.77,116.77,0,0,1,4.4-12.11q2.7-6.15,6.3-14,3.45-7.2,7.8-15.9-2.55-.6-3-.75a89.12,89.12,0,0,0-12.75-2.1c-.57,0-1.11,0-1.62,0a16.85,16.85,0,0,0-3.26.27,5.08,5.08,0,0,0-2.47,1,2.35,2.35,0,0,0-.45.6l.15.9a2.44,2.44,0,0,1-2.25,2.55A2.38,2.38,0,0,1,522,74v-1.2a6.07,6.07,0,0,1,1.8-4,9.9,9.9,0,0,1,4.95-2.25,46,46,0,0,1,5.85-.6,106.69,106.69,0,0,1,13.8,1.35c1.29.2,2.9.5,4.8.9q1-2.1,1.5-2.85,3.45-6.45,5.25-9.45,2.7-4.35,4.65-7.2a42.91,42.91,0,0,1,3.6-4.8l1.2-1.35a3.77,3.77,0,0,1,2.76-1.37M720.77,96.51a7.38,7.38,0,0,0,1.06-1.5,3.11,3.11,0,0,0,.44-.9,1.63,1.63,0,0,0,.31-.9c-.08-.45-.44-.67-1.07-.67a4.16,4.16,0,0,0-.74.07,2.21,2.21,0,0,0-.89,1.8,2.91,2.91,0,0,0,.89,2.1m-475,0a7.42,7.42,0,0,0,1.05-1.5,3.29,3.29,0,0,0,.45-.9,1.61,1.61,0,0,0,.3-.9c-.07-.45-.43-.67-1.07-.67a4.14,4.14,0,0,0-.73.07,2.24,2.24,0,0,0-.9,1.8,2.88,2.88,0,0,0,.9,2.1m554.84,20.55q2.25,0,5.7-.15a66.44,66.44,0,0,0,8.7-1.35,30.35,30.35,0,0,0,10.2-4.35,13,13,0,0,0,3.75-4.65,6,6,0,0,0-.15-5.4q-2.16-4.25-6-4.24-4.14,0-10.23,5a44.62,44.62,0,0,0-6.15,6.15,38,38,0,0,0-2.4,3.15l-1.2,2-1.05,1.65a15.29,15.29,0,0,0-1.2,2.25m-645.74,0q2.25,0,5.7-.15a66.44,66.44,0,0,0,8.7-1.35,30.35,30.35,0,0,0,10.2-4.35,13,13,0,0,0,3.75-4.65,6,6,0,0,0-.15-5.4q-2.16-4.25-6-4.24-4.14,0-10.23,5a44.62,44.62,0,0,0-6.15,6.15,38,38,0,0,0-2.4,3.15l-1.2,2L156,114.81a15.29,15.29,0,0,0-1.2,2.25M442.9,133.79q3.23,0,8.78-3.08a6.57,6.57,0,0,1,1.2-.6,85.48,85.48,0,0,0,15.3-11,85.58,85.58,0,0,0,9.6-9.3L474,107.31a1.63,1.63,0,0,1-.6-.3,17.21,17.21,0,0,0-6.45-1.2q-9.15.3-20.7,10a31.8,31.8,0,0,0-6.15,7.2q-2.85,5.1-1.05,8.55a5.25,5.25,0,0,0,2.25,1.95,5.13,5.13,0,0,0,1.57.23M572.2,30.14h0A14.72,14.72,0,0,0,561.41,35l-.11.1-.09.11L560,36.55l0,.06,0,0a53.91,53.91,0,0,0-4.45,5.9c-1.38,2-3,4.49-4.84,7.5l0,.07-.05.08c-.86,1.44-1.95,3.35-3.27,5.77a109.39,109.39,0,0,0-12.37-1.06h-.77a58.54,58.54,0,0,0-7.27.76h-.07l-.08,0a20.75,20.75,0,0,0-10.31,4.94l-.19.17L516,61a17,17,0,0,0-5,11.12l0,.35v2.71l.24,1.13a13.36,13.36,0,0,0,13.31,10.8h.78l.77-.11a13.63,13.63,0,0,0,6.74-2.9l-.36.76,0,.07,0,.07c-2.41,5.23-4.56,10-6.38,14.14l0,.1,0,.1c-1.47,3.53-2.66,6.67-3.62,9.5l-3.21,2.28c-4.71,3.07-8.53,5.4-11.37,6.92a43.06,43.06,0,0,1-10.26,3.48l-.4.06,0-.06,0-.07,0-.06a11.86,11.86,0,0,1-.32-2.37v-4.17c0-.06,0-.29.07-.78.11-.85.18-1.54.21-2.16.3-3.2.32-3.56.32-4.15v-.45a14.51,14.51,0,0,0-11-14.38l-.45-.12-.45-.08a16.08,16.08,0,0,0-2.83-.25,15.28,15.28,0,0,0-3.72.45l-1.14-.47h-.06a17.94,17.94,0,0,0-2.11-.71,53,53,0,0,0-9.28-2.08l-.25,0-.25,0c-.93-.08-1.88-.11-2.82-.11A43.22,43.22,0,0,0,444.2,94.1a50.12,50.12,0,0,0-15.72,11.73l-.11.12-.1.12a52.33,52.33,0,0,0-3.87,5.18l-.77.55c-2.07,1.4-4.08,2.66-6.05,3.76,0-.2.07-.4.1-.59l0-.13,0-.14a25.21,25.21,0,0,0,.26-2.93c0-.12,0-.37.08-.82l.07-.62v-.62a35.06,35.06,0,0,0-.43-5.41l0-.18,0-.18a22.09,22.09,0,0,0-3.3-8.27l-.18-.26-.18-.25a19.55,19.55,0,0,0-9.5-7,17.3,17.3,0,0,0-5.6-.89c-4.29,0-9.29,1.36-15.75,4.29a91.35,91.35,0,0,0-10.91,5.94l-.18.12-.19.12-.71.49c-.34-.42-.69-.82-1.05-1.22l-.45-.49-.51-.43a20.53,20.53,0,0,0-9.89-4.73l-.95-.17h-1c-1.27,0-3,.11-5.64.35l-.24,0-.24,0a47,47,0,0,0-5.25,1l0,0h-.05c-.64.17-1.29.36-1.93.57a14.55,14.55,0,0,0-7.9-8.07,16.21,16.21,0,0,0-2.71-.92l-.27-.07-.27,0a16.09,16.09,0,0,0-3.14-.32,14.15,14.15,0,0,0-13.18,8.7c-.51,1-1.44,3.05-3.74,8.42-1.19,2.8-2.35,5.47-3.45,8l-4.48,3.18a73.7,73.7,0,0,1-11.93,6.89l-.24.11-.23.12c-1,.47-1.89.89-2.8,1.24.43-1,.66-1.62.8-2a32.18,32.18,0,0,0,1.92-7.25l.1-.73v-2.53a14.84,14.84,0,0,0-.15-2.13v-1l-.57-1.7-.15-.45-.25-.75-.14-.27-.15-.46-.36-.72-.15-.3-.31-.61-.38-.57-.12-.17a17.15,17.15,0,0,0-2.42-3.26,20.81,20.81,0,0,0-11-6l-.09,0-.1,0a47.09,47.09,0,0,0-6.3-.8h-7.42a17.32,17.32,0,0,0-.88-2.47l-.28-.62-.34-.58a16.42,16.42,0,0,0-3.21-3.86l0,0,0,0a16,16,0,0,0-3.72-2.41,24.82,24.82,0,0,0-4.38-1.6l-.39-.11-.39-.08a23,23,0,0,0-4.7-.5,20.26,20.26,0,0,0-6.08.92l-.1,0-.1,0a18.42,18.42,0,0,0-6.65,4.12c-.25.22-.53.47-.92.86l-.33.33-.3.35a14.27,14.27,0,0,0-1.37,1.83,13.59,13.59,0,0,0-1.53,3.48,29.11,29.11,0,0,0-.91,6.4l-.05.88.1.88a15.64,15.64,0,0,0,.62,2.93c-.61.46-1.23.93-1.87,1.39l-7.22,5.28-8,5.65-.11.08-.1.08-1,.72a70.42,70.42,0,0,1-17.06,8.13,28.46,28.46,0,0,0,5.41-7.26l.2-.37.16-.38a24.36,24.36,0,0,0,1.92-8l0-.37V104c0-8.11-4.1-15-11.55-19.36a26.85,26.85,0,0,0-13.94-4,29.44,29.44,0,0,0-14.41,4l-.16.09-.15.09a49,49,0,0,0-12.41,10.81c-1.07,1.29-2.17,2.66-3.25,4.07l-.35.45-.3.49-1,1.7-1.18,1.7-.26.38-.23.39a60.35,60.35,0,0,0-5.1,11l0,.08,0,.08a31.81,31.81,0,0,0-1,17.1l0,.18,0,.19A22.12,22.12,0,0,0,139.83,144l.19.17.2.17a26.54,26.54,0,0,0,8.12,4.64l.31.11.32.1a58.77,58.77,0,0,0,11.25,2.21c1.67.16,3.33.25,4.93.25a43.26,43.26,0,0,0,6.3-.45c19.86-2.45,36.56-7.79,49.71-15.89l.08.12,2.37-1.69,1.58-1.07.08-.06.07-.05,3.28-2.39,1.73-1.22,9.45-6.75.74-.53.08-.08c2.44-1.77,5-3.85,7.85-6.31q1.72.12,3.69.12c.77,0,2.2,0,6.23-.29A79.65,79.65,0,0,0,255,123.7l-.11.34-.08.34a27.71,27.71,0,0,0-.91,8.66v.17a24.12,24.12,0,0,0,1.38,6.31l.17.48.22.47a18.33,18.33,0,0,0,10,9.44l.13.05.14,0a18.41,18.41,0,0,0,6.25,1,29.51,29.51,0,0,0,5.53-.57c7.43-1.4,9.82-2,11-2.28l.12,0,.12,0c3.34-1,5.85-1.79,7.68-2.51.48-.18,1.43-.56,4.41-1.81a15.5,15.5,0,0,0,5.39,4.6l.1,0,.11.06A15,15,0,0,0,326.23,143l.32-.5.27-.53c.76-1.53,1.64-3.32,2.62-5.35.54-.63,1.07-1.24,1.59-1.81,2.73-2.83,5.49-5.49,8.2-7.94.84-.71,1.89-1.55,3.14-2.5a14.85,14.85,0,0,0,5.74,15l.79.6.88.45.78.39.15.07.16.07a15.36,15.36,0,0,0,6.39,1.42,14.76,14.76,0,0,0,12-6.35l.52-.73.39-.78a30.25,30.25,0,0,0,1.66-2.76,24.5,24.5,0,0,0,1.23-2.35c1.71-1.52,3.71-3.12,5.95-4.77l0,0,0,0c2.11-1.58,4.17-3,6.16-4.25-.07.37-.13.71-.19,1l-.07.41,0,.41a35,35,0,0,0,.33,10.71l.08.42.12.41a19.18,19.18,0,0,0,6.63,9.76l.58.46.65.38a19.38,19.38,0,0,0,9.9,2.55,40.57,40.57,0,0,0,8.84-.86l1.35-.3,1.32-.29.58-.29.12,0,.38-.13.88-.31,1.1-.31a36.47,36.47,0,0,0,4.46-1.67l.58-.24.28-.17.3-.07h0A19.24,19.24,0,0,0,438,150.24h.33c.31,0,.63,0,.95,0A34.1,34.1,0,0,0,452,147.52a61.77,61.77,0,0,0,8.46-4.28,88.85,88.85,0,0,0,9.65-6.43l1.08-.81a27.43,27.43,0,0,0,5.57,6.2l.29.24.32.22a32.21,32.21,0,0,0,12.21,5.11l.23,0,.23,0a29.65,29.65,0,0,0,4.87.39,38.77,38.77,0,0,0,7.29-.74,49,49,0,0,0,9.41-2.8c1.32-.49,3-1.2,5.16-2.17l.21-.09.19-.1.09,0h.14l2.22-1,.18-.09.9-.36.13-.13c1.07-.52,2.12-1,3.13-1.58q.63.81,1.35,1.59a23.65,23.65,0,0,0,7.47,5.36l.13.06.13.06A49.1,49.1,0,0,0,543.59,149a53.88,53.88,0,0,0,9.74.93c.6,0,1.21,0,1.81,0,9.73,0,19.87-2.49,30.14-7.41h0l0,0,1.14-.57a20,20,0,0,0,4.46,4.49l.33.25.35.22a25.13,25.13,0,0,0,10.05,3.52l.74.1H603l2.18.13.65,0,.65,0,2.7-.15.37,0,.38,0,2.4-.3.58-.07.57-.14,2.55-.6.71-.16.68-.26A67.42,67.42,0,0,0,628,143.74l.13-.08.13-.08c1.38-.88,2.76-1.82,4.12-2.82a24.29,24.29,0,0,0,18.05,9.33h.14c.93.05,1.87.07,2.8.07a65.46,65.46,0,0,0,26.71-6.12h0c2.33-1.06,4.67-2.18,7-3.33l.1,0,.09-.05c7.4-3.89,10.61-6,12.51-7.65l5.4-3.92,9.65-6.94.72-.52.07-.06c2.44-1.77,5-3.85,7.85-6.31,1.15.07,2.38.11,3.68.11.78,0,2.21,0,6.24-.28a79.65,79.65,0,0,0-3.36,8.58L730,124l-.08.34A27.71,27.71,0,0,0,729,133v.16a24.2,24.2,0,0,0,1.38,6.32l.17.48.22.46a18.31,18.31,0,0,0,10,9.45l.13.05.14,0a18.41,18.41,0,0,0,6.25,1,28.75,28.75,0,0,0,5.53-.58c7.43-1.39,9.82-2,11-2.27l.12,0,.11,0c3.34-1,5.86-1.8,7.69-2.51.58-.22,1.86-.74,6.56-2.72l.09,0,.09,0c1.36-.6,2.76-1.28,4.21-2a22,22,0,0,0,2.89,3.3l.19.17.2.17a26.54,26.54,0,0,0,8.12,4.64l.31.11.32.1A58.72,58.72,0,0,0,806,151.41c1.66.16,3.32.25,4.92.25a43.26,43.26,0,0,0,6.3-.45c21.95-2.71,40-9,53.74-18.53l.08-.06.07-.05,9.31-6.75.44-.32.4-.37A13.09,13.09,0,0,0,884,108.8l-.47-.86-.61-.76a13.05,13.05,0,0,0-10.2-5,13.57,13.57,0,0,0-6.91,1.93l-.44.25-.41.29-9.9,7-.74.54-.18.17h0a70.34,70.34,0,0,1-17.28,8.29,28.7,28.7,0,0,0,5.41-7.26l.19-.37.16-.38a24.11,24.11,0,0,0,1.92-8l0-.37V104c0-8.11-4.1-15-11.54-19.36a26.91,26.91,0,0,0-13.95-4,29.47,29.47,0,0,0-14.41,4l-.15.09-.15.09A48.74,48.74,0,0,0,792,95.65c-1.07,1.28-2.17,2.66-3.25,4.06l-.35.45-.29.49-1,1.69-1.18,1.71-.26.38-.23.39q-1.53,2.67-2.73,5.18l-2.75,2a73.7,73.7,0,0,1-11.93,6.89l-.24.11-.23.11c-1,.48-1.89.9-2.8,1.25.43-1,.65-1.62.8-2a32.65,32.65,0,0,0,1.92-7.26l.09-.72v-2.54a16.41,16.41,0,0,0-.14-2.12v-1l-.57-1.69-.15-.45-.25-.75-.15-.29-.15-.45-.35-.71-.15-.3-.31-.6-.37-.56-.12-.19a17.28,17.28,0,0,0-2.44-3.27,20.87,20.87,0,0,0-11-6l-.09,0-.1,0a45.52,45.52,0,0,0-6.3-.8l-.33,0h-7.09a17.64,17.64,0,0,0-.88-2.46l-.28-.62-.34-.58A16.42,16.42,0,0,0,732.7,81l0,0,0,0a15.72,15.72,0,0,0-3.72-2.41,23.19,23.19,0,0,0-4.39-1.6l-.38-.11-.39-.08a23,23,0,0,0-4.7-.5,20.58,20.58,0,0,0-6.08.91l-.1,0-.1,0a17.75,17.75,0,0,0-7,4.46l-.46.45-.29.29-.71.71-.56.82a14.38,14.38,0,0,0-1.94,3.69l-.1.29-.09.29a28.68,28.68,0,0,0-.86,6.36l0,.89.1.88a15.64,15.64,0,0,0,.62,2.93l-1.87,1.39-9.71,7.13L684.15,112c-5,3.39-7.39,4.86-8.55,5.5-2,1.08-3.89,2-5.63,2.76a42.3,42.3,0,0,1-12.14,3h-.41l-.15-.1a.57.57,0,0,1-.13-.08c.08-.47.14-.91.17-1.34,0-.14.05-.27.08-.38l.16-.34.28-1.65a21.07,21.07,0,0,1,1-3.08c.29-.77.76-2,1.4-3.64.29-.71.52-1.25.69-1.68l.48-.48.52-1.72.6-1.18v-1a14.69,14.69,0,0,0-6.91-16l-1.1-.67-1.22-.4-.64-.21-.2-.07-.16,0-.17-.05a15.77,15.77,0,0,0-4.56-.69,14.46,14.46,0,0,0-12.69,7.64L632.9,99.5l-.21.37-.18.38c-.78,1.68-1.52,3.38-2.2,5.08l-.12.29-.1.31c-.26.77-.53,1.64-.82,2.61a83.26,83.26,0,0,1-9,8.65c-.76.6-1.53,1.17-2.3,1.73l2.5-4.16c2.13-3.34,2.43-3.86,2.7-4.39a14.94,14.94,0,0,0-3.08-18.05,13.46,13.46,0,0,0-3.15-2.27,15.17,15.17,0,0,0-7.07-1.79,14.69,14.69,0,0,0-11.44,5.61l-2.5,3v.34l-.26.33-.08.11-.08.11a103.84,103.84,0,0,0-7,11.06l0,0,0,0-.52,1-.92.65-.14.1-.14.1L585,112.07a97.07,97.07,0,0,1-11.17,7,41.68,41.68,0,0,1-18.31,4.28c-.46,0-.93,0-1.39,0a26.63,26.63,0,0,1-4.65-.72l-.31-.09a97.41,97.41,0,0,1,4.34-11.29c1.66-3.6,3.77-8,6.29-13.16q2.84-5.73,4.94-9.91c1.29.21,2.62.39,4,.54a70.49,70.49,0,0,0,8.88.67c.65,0,1.33,0,2,0a65.57,65.57,0,0,0,6.95-.4l.11,0h.1A62.59,62.59,0,0,0,595,87.33l.52-.15L596,87a48.27,48.27,0,0,0,6.57-3,30.6,30.6,0,0,0,3.79-2.43l.7-.51.57-.58c.4-.38,2.23-2.07,3.74-3.44l.58-.54.5-.61a13.32,13.32,0,0,0,0-17.22l-.85-1-1.07-.81A13.75,13.75,0,0,0,602.29,54a13.3,13.3,0,0,0-9.44,4h0l-1.72,1.61-2,1.4a11.7,11.7,0,0,1-1.87.71l-.08,0-.08,0a15.72,15.72,0,0,1-3,.66l-1.41,0c-1.16,0-2.34-.05-3.53-.15,2.67-4.22,5-7.83,5.65-8.74l.23-.31.25-.43a14.73,14.73,0,0,0-2.72-18.61A12.58,12.58,0,0,0,580,32.38a15.12,15.12,0,0,0-7.82-2.24Z"
          transform="translate(-23.08 -17.2)"/>
</svg>